<!-- icon666.com - MILLIONS vector ICONS FREE --><svg version="1.1" id="Capa_1" xmlns="http://www.w3.org/2000/svg" xmlns:xlink="http://www.w3.org/1999/xlink" x="0px" y="0px" viewBox="0 0 512 512" style="enable-background:new 0 0 512 512;" xml:space="preserve"><g><g><polygon points="466.729,113.111 512,67.84 444.16,0 398.889,45.27 353.618,0 308.348,45.27 263.077,0 217.806,45.27 172.535,0 104.695,67.84 128.728,91.874 158.382,62.221 203.652,107.492 248.923,62.221 294.194,107.492 339.465,62.221 449.778,172.535 404.508,217.806 449.778,263.077 404.508,308.348 449.778,353.618 420.126,383.271 444.16,407.305 512,339.464 466.729,294.193 512,248.923 466.729,203.651 512,158.382 " fill="#000000" style="fill: rgb(255, 255, 255);"></polygon></g></g><g><g><polygon points="362.034,217.806 407.305,172.535 339.465,104.695 294.193,149.966 248.923,104.695 203.651,149.966 158.382,104.695 113.111,149.966 67.84,104.695 0,172.535 45.27,217.806 0,263.077 45.27,308.348 0,353.618 45.27,398.889 0,444.16 67.84,512 113.111,466.729 158.382,512 203.651,466.729 248.923,512 294.193,466.729 339.465,512 407.305,444.16 362.034,398.889 407.305,353.618 362.034,308.348 407.305,263.077 " fill="#000000" style="fill: rgb(255, 255, 255);"></polygon></g></g></svg>