<svg width="245" height="245" viewBox="0 0 245 245" fill="none" xmlns="http://www.w3.org/2000/svg">
<g clip-path="url(#clip0_0_3)">
<path d="M123.04 0C190.62 0 245.05 54.65 245.01 122.46C244.97 190.48 190.25 244.53 121.5 244.45C54.71 244.37 -0.0299877 189.76 1.23251e-05 123.24C0.0300123 54.97 54.92 0 123.04 0Z" fill="#885554"/>
<path d="M123.39 43.66C137 43.52 150.62 43.35 163.99 46.58C183.45 51.29 198 62.74 208.64 79.43C211.05 83.22 210.47 84.41 206.04 84.95C203.32 85.29 200.57 85.38 197.83 85.58C192.25 85.97 189.63 88.12 188.78 93.63C187.07 104.71 185.6 115.84 182.6 126.67C181.94 129.06 182.76 130.55 184.97 131.38C187.42 132.3 188.88 131 189.6 128.91C191.85 122.42 193.15 115.69 194.21 108.91C194.73 105.58 195.16 102.25 195.62 98.91C195.99 96.21 197.44 94.59 200.21 94.33C202.57 94.11 204.93 93.89 207.29 93.8C212.14 93.62 213.18 94.56 212.89 99.31C212.16 111.56 210.32 123.71 206.08 135.2C201.32 148.11 199.64 161.22 200.31 174.85C200.66 181.95 200.37 189.08 200.37 196.2C200.37 199.38 199.25 202.07 196.77 204.09C192.71 207.4 186.92 205.97 185.1 201.02C183.64 197.06 182.57 192.94 181.46 188.86C180.91 186.82 180.09 185.79 177.67 185.8C140.95 185.9 104.23 185.91 67.52 185.86C65.15 185.86 64.21 186.81 63.64 188.89C62.62 192.61 61.43 196.28 60.31 199.98C59.21 203.6 56.93 205.73 53 205.73C48.99 205.73 46.5 203.58 45.04 200.04C44.36 198.4 44.27 196.66 44.28 194.89C44.32 185.65 44.09 176.4 44.38 167.17C44.67 157.93 43.18 149.1 40.17 140.38C35.64 127.25 32.83 113.72 31.71 99.85C31.27 94.4 32.13 93.52 37.65 93.71C48.83 94.09 48.63 93.85 49.79 104.46C50.57 111.63 51.92 118.76 53.99 125.71C54.38 127.02 54.84 128.32 55.39 129.56C56.21 131.4 57.57 132.27 59.6 131.44C61.58 130.63 62.54 129.36 61.94 127.05C59.13 116.17 57.55 105.07 56.14 93.93C55.43 88.3 52.62 85.93 46.94 85.55C44.08 85.36 41.21 85.15 38.36 84.85C34.36 84.43 33.49 82.8 35.72 79.44C46.78 62.78 61.49 51.13 81.29 46.59C95.16 43.41 109.28 43.51 123.39 43.66Z" fill="#5D1211"/>
<path d="M122.03 121.58C113.16 121.58 104.29 121.65 95.42 121.56C86.17 121.47 79.21 115.36 78.08 106.19C77.16 98.76 76.38 91.3 75.85 83.84C74.91 70.6 83.36 61.61 96.66 61.56C113.77 61.49 130.88 61.47 148 61.52C161.18 61.56 169.54 70.24 168.79 83.41C168.34 91.25 167.5 99.08 166.48 106.87C165.36 115.45 158.42 121.45 149.75 121.55C140.51 121.66 131.26 121.58 122.02 121.58H122.03Z" fill="#885554"/>
<path d="M122.39 168.9C107.41 168.9 92.43 168.94 77.45 168.88C69.05 168.85 62.91 164 62.91 155.58C62.76 147.52 68.45 141.36 76.94 141.31C107.27 141.14 137.61 141.15 167.94 141.29C175.3 141.32 181.5 147.236 181.5 155.58C181.5 163.924 174.658 168.99 166.21 168.99C151.61 168.99 137 168.99 122.4 168.99C122.4 168.96 122.4 168.93 122.4 168.9H122.39Z" fill="#885554"/>
<path d="M88 141.5C88 145.642 84.6421 149 80.5 149C76.3579 149 73 145.642 73 141.5C73 137.358 76.3579 134 80.5 134C84.6421 134 88 137.358 88 141.5Z" fill="#5D1211"/>
<path d="M102 141.5C102 145.642 98.6421 149 94.5 149C90.3579 149 87 145.642 87 141.5C87 137.358 90.3579 134 94.5 134C98.6421 134 102 137.358 102 141.5Z" fill="#5D1211"/>
<path d="M116 141.5C116 145.642 112.642 149 108.5 149C104.358 149 101 145.642 101 141.5C101 137.358 104.358 134 108.5 134C112.642 134 116 137.358 116 141.5Z" fill="#5D1211"/>
<path d="M130 141.5C130 145.642 126.642 149 122.5 149C118.358 149 115 145.642 115 141.5C115 137.358 118.358 134 122.5 134C126.642 134 130 137.358 130 141.5Z" fill="#5D1211"/>
<path d="M144 141.5C144 145.642 140.642 149 136.5 149C132.358 149 129 145.642 129 141.5C129 137.358 132.358 134 136.5 134C140.642 134 144 137.358 144 141.5Z" fill="#5D1211"/>
<path d="M158 141.5C158 145.642 154.642 149 150.5 149C146.358 149 143 145.642 143 141.5C143 137.358 146.358 134 150.5 134C154.642 134 158 137.358 158 141.5Z" fill="#5D1211"/>
<path d="M172 141.5C172 145.642 168.642 149 164.5 149C160.358 149 157 145.642 157 141.5C157 137.358 160.358 134 164.5 134C168.642 134 172 137.358 172 141.5Z" fill="#5D1211"/>
<path d="M74 155.5C74 159.642 70.6421 163 66.5 163C62.3579 163 59 159.642 59 155.5C59 151.358 62.3579 148 66.5 148C70.6421 148 74 151.358 74 155.5Z" fill="#5D1211"/>
<path d="M88 155.5C88 159.642 84.6421 163 80.5 163C76.3579 163 73 159.642 73 155.5C73 151.358 76.3579 148 80.5 148C84.6421 148 88 151.358 88 155.5Z" fill="#5D1211"/>
<path d="M102 155.5C102 159.642 98.6421 163 94.5 163C90.3579 163 87 159.642 87 155.5C87 151.358 90.3579 148 94.5 148C98.6421 148 102 151.358 102 155.5Z" fill="#5D1211"/>
<path d="M116 155.5C116 159.642 112.642 163 108.5 163C104.358 163 101 159.642 101 155.5C101 151.358 104.358 148 108.5 148C112.642 148 116 151.358 116 155.5Z" fill="#5D1211"/>
<path d="M130 155.5C130 159.642 126.642 163 122.5 163C118.358 163 115 159.642 115 155.5C115 151.358 118.358 148 122.5 148C126.642 148 130 151.358 130 155.5Z" fill="#5D1211"/>
<path d="M144 155.5C144 159.642 140.642 163 136.5 163C132.358 163 129 159.642 129 155.5C129 151.358 132.358 148 136.5 148C140.642 148 144 151.358 144 155.5Z" fill="#5D1211"/>
<path d="M158 155.5C158 159.642 154.642 163 150.5 163C146.358 163 143 159.642 143 155.5C143 151.358 146.358 148 150.5 148C154.642 148 158 151.358 158 155.5Z" fill="#5D1211"/>
<path d="M172 155.5C172 159.642 168.642 163 164.5 163C160.358 163 157 159.642 157 155.5C157 151.358 160.358 148 164.5 148C168.642 148 172 151.358 172 155.5Z" fill="#5D1211"/>
<path d="M186 155.5C186 159.642 182.642 163 178.5 163C174.358 163 171 159.642 171 155.5C171 151.358 174.358 148 178.5 148C182.642 148 186 151.358 186 155.5Z" fill="#5D1211"/>
<path d="M88 169.5C88 173.642 84.6421 177 80.5 177C76.3579 177 73 173.642 73 169.5C73 165.358 76.3579 162 80.5 162C84.6421 162 88 165.358 88 169.5Z" fill="#5D1211"/>
<path d="M102 169.5C102 173.642 98.6421 177 94.5 177C90.3579 177 87 173.642 87 169.5C87 165.358 90.3579 162 94.5 162C98.6421 162 102 165.358 102 169.5Z" fill="#5D1211"/>
<path d="M116 169.5C116 173.642 112.642 177 108.5 177C104.358 177 101 173.642 101 169.5C101 165.358 104.358 162 108.5 162C112.642 162 116 165.358 116 169.5Z" fill="#5D1211"/>
<path d="M130 169.5C130 173.642 126.642 177 122.5 177C118.358 177 115 173.642 115 169.5C115 165.358 118.358 162 122.5 162C126.642 162 130 165.358 130 169.5Z" fill="#5D1211"/>
<path d="M144 169.5C144 173.642 140.642 177 136.5 177C132.358 177 129 173.642 129 169.5C129 165.358 132.358 162 136.5 162C140.642 162 144 165.358 144 169.5Z" fill="#5D1211"/>
<path d="M158 169.5C158 173.642 154.642 177 150.5 177C146.358 177 143 173.642 143 169.5C143 165.358 146.358 162 150.5 162C154.642 162 158 165.358 158 169.5Z" fill="#5D1211"/>
<path d="M172 169.5C172 173.642 168.642 177 164.5 177C160.358 177 157 173.642 157 169.5C157 165.358 160.358 162 164.5 162C168.642 162 172 165.358 172 169.5Z" fill="#5D1211"/>
<path d="M100.45 61.875C100.45 66.2242 96.9243 69.75 92.575 69.75C88.2258 69.75 84.7 66.2242 84.7 61.875C84.7 57.5258 88.2258 54 92.575 54C96.9243 54 100.45 57.5258 100.45 61.875Z" fill="#5D1211"/>
<path d="M115.15 61.875C115.15 66.2242 111.624 69.75 107.275 69.75C102.926 69.75 99.4 66.2242 99.4 61.875C99.4 57.5258 102.926 54 107.275 54C111.624 54 115.15 57.5258 115.15 61.875Z" fill="#5D1211"/>
<path d="M129.85 61.875C129.85 66.2242 126.324 69.75 121.975 69.75C117.626 69.75 114.1 66.2242 114.1 61.875C114.1 57.5258 117.626 54 121.975 54C126.324 54 129.85 57.5258 129.85 61.875Z" fill="#5D1211"/>
<path d="M144.55 61.875C144.55 66.2242 141.024 69.75 136.675 69.75C132.326 69.75 128.8 66.2242 128.8 61.875C128.8 57.5258 132.326 54 136.675 54C141.024 54 144.55 57.5258 144.55 61.875Z" fill="#5D1211"/>
<path d="M159.25 61.875C159.25 66.2242 155.724 69.75 151.375 69.75C147.026 69.75 143.5 66.2242 143.5 61.875C143.5 57.5258 147.026 54 151.375 54C155.724 54 159.25 57.5258 159.25 61.875Z" fill="#5D1211"/>
<path d="M85.75 76.625C85.75 80.9742 82.2242 84.5 77.875 84.5C73.5258 84.5 70 80.9742 70 76.625C70 72.2758 73.5258 68.75 77.875 68.75C82.2242 68.75 85.75 72.2758 85.75 76.625Z" fill="#5D1211"/>
<path d="M100.45 76.625C100.45 80.9742 96.9243 84.5 92.575 84.5C88.2258 84.5 84.7 80.9742 84.7 76.625C84.7 72.2758 88.2258 68.75 92.575 68.75C96.9243 68.75 100.45 72.2758 100.45 76.625Z" fill="#5D1211"/>
<path d="M115.15 76.625C115.15 80.9742 111.624 84.5 107.275 84.5C102.926 84.5 99.4 80.9742 99.4 76.625C99.4 72.2758 102.926 68.75 107.275 68.75C111.624 68.75 115.15 72.2758 115.15 76.625Z" fill="#5D1211"/>
<path d="M129.85 76.625C129.85 80.9742 126.324 84.5 121.975 84.5C117.626 84.5 114.1 80.9742 114.1 76.625C114.1 72.2758 117.626 68.75 121.975 68.75C126.324 68.75 129.85 72.2758 129.85 76.625Z" fill="#5D1211"/>
<path d="M144.55 76.625C144.55 80.9742 141.024 84.5 136.675 84.5C132.326 84.5 128.8 80.9742 128.8 76.625C128.8 72.2758 132.326 68.75 136.675 68.75C141.024 68.75 144.55 72.2758 144.55 76.625Z" fill="#5D1211"/>
<path d="M159.25 76.625C159.25 80.9742 155.724 84.5 151.375 84.5C147.026 84.5 143.5 80.9742 143.5 76.625C143.5 72.2758 147.026 68.75 151.375 68.75C155.724 68.75 159.25 72.2758 159.25 76.625Z" fill="#5D1211"/>
<path d="M173.95 76.625C173.95 80.9742 170.424 84.5 166.075 84.5C161.726 84.5 158.2 80.9742 158.2 76.625C158.2 72.2758 161.726 68.75 166.075 68.75C170.424 68.75 173.95 72.2758 173.95 76.625Z" fill="#5D1211"/>
<path d="M85.75 91.375C85.75 95.7242 82.2242 99.25 77.875 99.25C73.5258 99.25 70 95.7242 70 91.375C70 87.0258 73.5258 83.5 77.875 83.5C82.2242 83.5 85.75 87.0258 85.75 91.375Z" fill="#5D1211"/>
<path d="M100.45 91.375C100.45 95.7242 96.9243 99.25 92.575 99.25C88.2258 99.25 84.7 95.7242 84.7 91.375C84.7 87.0257 88.2258 83.5 92.575 83.5C96.9243 83.5 100.45 87.0257 100.45 91.375Z" fill="#5D1211"/>
<path d="M115.15 91.375C115.15 95.7242 111.624 99.25 107.275 99.25C102.926 99.25 99.4 95.7242 99.4 91.375C99.4 87.0257 102.926 83.5 107.275 83.5C111.624 83.5 115.15 87.0257 115.15 91.375Z" fill="#5D1211"/>
<path d="M129.85 91.375C129.85 95.7242 126.324 99.25 121.975 99.25C117.626 99.25 114.1 95.7242 114.1 91.375C114.1 87.0257 117.626 83.5 121.975 83.5C126.324 83.5 129.85 87.0257 129.85 91.375Z" fill="#5D1211"/>
<path d="M144.55 91.375C144.55 95.7242 141.024 99.25 136.675 99.25C132.326 99.25 128.8 95.7242 128.8 91.375C128.8 87.0257 132.326 83.5 136.675 83.5C141.024 83.5 144.55 87.0257 144.55 91.375Z" fill="#5D1211"/>
<path d="M159.25 91.375C159.25 95.7242 155.724 99.25 151.375 99.25C147.026 99.25 143.5 95.7242 143.5 91.375C143.5 87.0257 147.026 83.5 151.375 83.5C155.724 83.5 159.25 87.0257 159.25 91.375Z" fill="#5D1211"/>
<path d="M173.95 91.375C173.95 95.7242 170.424 99.25 166.075 99.25C161.726 99.25 158.2 95.7242 158.2 91.375C158.2 87.0257 161.726 83.5 166.075 83.5C170.424 83.5 173.95 87.0257 173.95 91.375Z" fill="#5D1211"/>
<path d="M85.75 106.125C85.75 110.474 82.2242 114 77.875 114C73.5258 114 70 110.474 70 106.125C70 101.776 73.5258 98.25 77.875 98.25C82.2242 98.25 85.75 101.776 85.75 106.125Z" fill="#5D1211"/>
<path d="M100.45 106.125C100.45 110.474 96.9243 114 92.575 114C88.2258 114 84.7 110.474 84.7 106.125C84.7 101.776 88.2258 98.25 92.575 98.25C96.9243 98.25 100.45 101.776 100.45 106.125Z" fill="#5D1211"/>
<path d="M115.15 106.125C115.15 110.474 111.624 114 107.275 114C102.926 114 99.4 110.474 99.4 106.125C99.4 101.776 102.926 98.25 107.275 98.25C111.624 98.25 115.15 101.776 115.15 106.125Z" fill="#5D1211"/>
<path d="M129.85 106.125C129.85 110.474 126.324 114 121.975 114C117.626 114 114.1 110.474 114.1 106.125C114.1 101.776 117.626 98.25 121.975 98.25C126.324 98.25 129.85 101.776 129.85 106.125Z" fill="#5D1211"/>
<path d="M144.55 106.125C144.55 110.474 141.024 114 136.675 114C132.326 114 128.8 110.474 128.8 106.125C128.8 101.776 132.326 98.25 136.675 98.25C141.024 98.25 144.55 101.776 144.55 106.125Z" fill="#5D1211"/>
<path d="M159.25 106.125C159.25 110.474 155.724 114 151.375 114C147.026 114 143.5 110.474 143.5 106.125C143.5 101.776 147.026 98.25 151.375 98.25C155.724 98.25 159.25 101.776 159.25 106.125Z" fill="#5D1211"/>
<path d="M173.95 106.125C173.95 110.474 170.424 114 166.075 114C161.726 114 158.2 110.474 158.2 106.125C158.2 101.776 161.726 98.25 166.075 98.25C170.424 98.25 173.95 101.776 173.95 106.125Z" fill="#5D1211"/>
<path d="M100.45 120.875C100.45 125.224 96.9243 128.75 92.575 128.75C88.2258 128.75 84.7 125.224 84.7 120.875C84.7 116.526 88.2258 113 92.575 113C96.9243 113 100.45 116.526 100.45 120.875Z" fill="#5D1211"/>
<path d="M115.15 120.875C115.15 125.224 111.624 128.75 107.275 128.75C102.926 128.75 99.4 125.224 99.4 120.875C99.4 116.526 102.926 113 107.275 113C111.624 113 115.15 116.526 115.15 120.875Z" fill="#5D1211"/>
<path d="M129.85 120.875C129.85 125.224 126.324 128.75 121.975 128.75C117.626 128.75 114.1 125.224 114.1 120.875C114.1 116.526 117.626 113 121.975 113C126.324 113 129.85 116.526 129.85 120.875Z" fill="#5D1211"/>
<path d="M144.55 120.875C144.55 125.224 141.024 128.75 136.675 128.75C132.326 128.75 128.8 125.224 128.8 120.875C128.8 116.526 132.326 113 136.675 113C141.024 113 144.55 116.526 144.55 120.875Z" fill="#5D1211"/>
<path d="M159.25 120.875C159.25 125.224 155.724 128.75 151.375 128.75C147.026 128.75 143.5 125.224 143.5 120.875C143.5 116.526 147.026 113 151.375 113C155.724 113 159.25 116.526 159.25 120.875Z" fill="#5D1211"/>
</g>
<defs>
<clipPath id="clip0_0_3">
<rect width="245.01" height="244.45" fill="white"/>
</clipPath>
</defs>
</svg>
